Land_normalized_Motion_pl04
version=1
nRows=21
nColumns=43
inDegrees=yes
endheader
time		pelvis_tilt		pelvis_list		pelvis_rotation		pelvis_tx		pelvis_ty		pelvis_tz		hip_flexion_r		hip_adduction_r		hip_rotation_r		knee_angle_r		ankle_angle_r		subtalar_angle_r		mtp_angle_r		hip_flexion_l		hip_adduction_l		hip_rotation_l		knee_angle_l		ankle_angle_l		subtalar_angle_l		mtp_angle_l		lumbar_extension		lumbar_bending		lumbar_rotation		neck_flexion		neck_lateral_bending		neck_rotation		arm_flex_r		arm_add_r		arm_rot_r		elbow_flex_r		pro_sup_r		wrist_flex_r		wrist_dev_r		hand_finger_flex_r		arm_flex_l		arm_add_l		arm_rot_l		elbow_flex_l		pro_sup_l		wrist_flex_l		wrist_dev_l		hand_finger_flex_l		
1.065000		1.835281		2.535514		86.217012		0.024935		0.641915		0.536616		72.612476		4.424041		0.602539		-102.047717		12.319646		2.759241		15.701539		67.146039		-8.405847		1.653663		-104.787777		18.577700		4.895844		30.359635		-58.477199		-0.079791		-0.925584		11.049381		-2.641387		5.754041		7.184913		-38.992869		-12.659138		76.238132		127.533340		-8.212729		-7.489301		-26.738297		-7.119269		-31.053456		-32.334535		86.017351		120.374695		-16.221676		-9.325116		15.217032		
1.068182		1.742307		2.456437		86.162235		0.025079		0.636252		0.535619		73.386329		4.416695		0.663591		-103.076962		12.532517		2.802780		15.897712		67.919353		-8.447882		1.680187		-105.869949		18.647099		4.977659		30.491267		-59.215583		-0.233289		-0.772230		11.790651		-2.638459		5.695650		9.788475		-39.591645		-11.174894		75.820493		127.892994		-7.699930		-7.418134		-26.638206		-4.504928		-32.308094		-30.891298		85.430646		120.686117		-15.949182		-9.077252		15.443353		
1.071364		1.694138		2.340635		86.042557		0.025166		0.630362		0.534517		74.223418		4.420260		0.682460		-104.111672		12.677790		3.083180		16.403086		68.786552		-8.595104		1.738976		-107.038019		18.620895		5.163039		30.796727		-59.677031		-0.346399		-0.695808		11.582602		-2.887516		5.582363		12.753825		-40.327828		-8.862101		75.129916		128.553179		-7.394512		-6.967467		-26.919834		-2.040703		-33.504754		-29.343670		84.737811		121.202713		-16.075575		-8.356781		15.917510		
1.074545		1.613198		2.152574		85.971492		0.025205		0.624641		0.533521		75.131503		4.345167		0.668510		-105.103251		12.793856		3.268031		16.852072		69.710486		-8.714080		1.761724		-108.125981		18.563912		5.347365		31.057146		-60.131548		-0.456749		-0.645049		11.786219		-3.014979		5.600875		15.610947		-40.965908		-6.773909		74.571984		129.130142		-7.027622		-6.605078		-27.202775		0.442465		-34.699379		-27.768959		84.112411		121.627678		-16.092573		-7.778849		16.365915		
1.077727		1.535455		1.810973		85.891975		0.025195		0.618799		0.532548		76.196001		4.198636		0.570250		-106.033690		12.864465		3.538770		17.392017		70.820378		-8.859213		1.784101		-109.204953		18.480362		5.545137		31.366485		-60.315361		-0.541775		-0.634420		11.559911		-3.251392		5.592562		18.625565		-41.403729		-4.516430		73.854659		129.735367		-6.748298		-5.979065		-27.831676		2.914276		-35.778542		-26.129069		83.384527		121.955936		-16.272983		-6.996101		16.825037		
1.080909		1.421492		1.462033		85.845422		0.025138		0.613084		0.531587		77.289689		3.989485		0.478426		-106.974707		12.873123		3.728885		17.842797		71.931791		-8.996495		1.759659		-110.230057		18.292133		5.753177		31.637699		-60.532001		-0.631428		-0.648394		11.669719		-3.399677		5.693522		21.466319		-41.859538		-2.427568		73.333705		130.239428		-6.298419		-5.593951		-28.415083		5.327384		-36.967347		-24.381899		82.756714		122.189330		-16.298749		-6.456678		17.215540		
1.084091		1.284455		1.097968		85.803167		0.025099		0.607472		0.530609		78.392519		3.741670		0.372730		-107.899694		12.890062		3.905377		18.082966		73.055336		-9.167314		1.676862		-111.225642		18.074145		5.971015		31.798948		-60.728775		-0.741368		-0.652706		11.856805		-3.520207		5.794582		24.150463		-42.196829		-0.640310		72.912110		130.660239		-5.763745		-5.399546		-28.651872		7.759810		-38.151876		-22.577416		82.168025		122.418391		-16.066512		-6.098999		17.409144		
1.087273		1.193829		0.492808		85.808456		0.024953		0.601450		0.529702		79.746050		3.407724		0.162257		-108.766213		12.873155		4.184187		18.502391		74.495340		-9.336723		1.645475		-112.214391		17.820087		6.161701		32.146740		-60.550000		-0.750362		-0.712726		11.521362		-3.731098		5.894968		27.005068		-42.284731		1.397671		72.248445		130.945051		-5.566886		-4.838035		-29.438950		10.088129		-39.146119		-20.806617		81.521681		122.452292		-16.325140		-5.452402		17.526283		
1.090455		1.112358		0.066891		85.821093		0.024970		0.595990		0.528784		80.869195		3.108844		-0.036701		-109.622634		12.888951		4.318859		18.763785		75.698165		-9.519374		1.621063		-113.135570		17.526123		6.350255		32.393811		-60.694750		-0.786133		-0.773051		11.910376		-3.836316		6.114136		29.609524		-42.352268		2.978531		71.940735		131.078274		-5.154392		-4.737128		-29.742677		12.329010		-40.301572		-19.102430		81.124611		122.586277		-16.185711		-5.230392		17.674321		
1.093636		1.116140		-0.472122		85.898725		0.024903		0.590422		0.527954		82.074324		2.757104		-0.340345		-110.416742		12.891189		4.492653		19.110286		77.055981		-9.678593		1.687749		-114.028890		17.222982		6.499560		32.778773		-60.657647		-0.700322		-0.825987		11.988236		-3.991053		6.311535		32.267474		-42.252200		4.613392		71.506477		130.965285		-4.915137		-4.521470		-30.200651		14.531966		-41.272496		-17.484448		80.719715		122.607310		-16.272032		-4.910187		17.798012		
1.096818		1.151345		-0.886503		85.978018		0.024999		0.585341		0.527173		83.092211		2.439248		-0.665047		-111.168089		12.933627		4.609899		19.304744		78.227852		-9.836194		1.783717		-114.854235		16.958342		6.638980		33.010455		-60.855676		-0.621870		-0.866122		12.539211		-4.101682		6.550815		34.767401		-42.089933		5.889058		71.329375		130.895084		-4.584696		-4.542665		-30.255989		16.676480		-42.306037		-16.002429		80.525719		122.782429		-16.022099		-4.823204		17.945372		
1.100000		1.223207		-1.293066		86.052437		0.025165		0.580832		0.526534		84.001727		2.163720		-0.983549		-111.776435		13.035955		4.704228		19.433654		79.281352		-9.990225		1.902123		-115.534227		16.869772		6.707936		33.167713		-61.134154		-0.534679		-0.892856		13.278173		-4.191528		6.697476		37.208982		-41.582859		6.694298		71.133802		130.797919		-4.381567		-4.502390		-30.245007		18.839398		-43.012090		-14.926480		80.415161		122.932885		-15.800900		-4.757824		18.032220		
1.103182		1.826237		-1.780777		86.406519		0.025029		0.575676		0.525883		84.932040		1.703176		-1.950724		-112.384070		13.010330		4.763508		19.975014		80.717917		-9.959508		2.742061		-116.413171		16.544370		6.809562		34.026290		-61.248464		0.146092		-0.642841		13.650265		-4.494483		6.954362		39.960793		-41.702463		8.950206		70.924215		129.509717		-4.965920		-4.288378		-30.608167		20.715141		-43.991184		-13.515470		80.411574		122.844650		-16.101167		-4.412638		18.304504		
1.106364		1.957127		-2.081169		86.460620		0.025256		0.571608		0.525306		85.684272		1.431983		-2.332855		-112.946007		12.992060		4.899066		20.089500		81.585323		-10.052344		2.947271		-117.038093		16.488768		6.854428		34.203546		-61.697753		0.241793		-0.612427		14.587707		-4.563462		7.176936		42.350731		-41.380984		9.885432		70.987614		129.468880		-4.746320		-4.394197		-30.447276		22.798495		-44.790560		-12.481718		80.528295		123.040964		-15.733235		-4.442637		18.491686		
1.109545		2.248000		-2.392009		86.553111		0.025383		0.567680		0.524736		86.371562		1.151056		-2.878891		-113.440246		12.989792		5.061023		20.216085		82.474872		-10.130083		3.326370		-117.661230		16.494754		6.855534		34.406015		-62.156143		0.484037		-0.447291		15.544887		-4.704969		7.320893		44.770538		-41.108361		10.939466		71.075246		129.320639		-4.738750		-4.427690		-30.381678		24.862269		-45.522368		-11.480170		80.692088		123.193073		-15.437995		-4.356830		18.651885		
1.112727		2.795047		-2.650661		86.664119		0.025456		0.564178		0.524159		86.873554		0.910638		-3.686751		-113.806703		12.999825		5.166671		20.457425		83.335372		-10.236347		4.001055		-118.284130		16.495466		6.884752		34.835564		-62.699290		0.888454		-0.002064		16.427813		-4.907712		7.382970		47.311207		-41.042725		12.460460		71.124701		128.662997		-5.360198		-4.179455		-30.554010		27.025871		-45.978387		-10.525246		80.847195		123.126975		-15.437390		-3.939722		18.801410		
1.115909		2.874287		-3.026601		86.553760		0.025795		0.560567		0.523580		87.613448		0.793052		-3.965404		-114.227705		12.992657		5.309827		20.528425		84.122611		-10.470967		4.062709		-118.814351		16.673166		6.828196		34.966454		-63.141058		0.828347		0.068708		17.597281		-5.044046		7.431693		49.533054		-40.570862		13.106002		71.341813		128.675360		-5.318595		-4.280679		-30.505543		29.021361		-46.642987		-9.748175		81.139303		123.254519		-15.219734		-3.958641		18.877029		
1.119091		3.011708		-3.352289		86.390419		0.025982		0.556994		0.522896		88.305376		0.675943		-4.316750		-114.674559		12.969580		5.515505		20.641974		84.873952		-10.791486		4.131253		-119.394183		16.760168		6.704962		35.145940		-63.613522		0.782768		0.287845		18.707439		-5.227445		7.489278		51.811113		-40.414371		14.121317		71.623543		128.722117		-5.404532		-4.369719		-30.544630		31.104147		-47.221957		-8.803614		81.398388		123.305916		-15.081788		-3.782496		18.925045		
1.122273		3.116741		-3.707510		86.205488		0.026109		0.553470		0.522237		89.006089		0.597418		-4.591523		-115.086178		13.011113		5.708038		20.793065		85.635916		-11.146650		4.118933		-119.950351		16.846970		6.507673		35.351565		-64.039060		0.708734		0.521548		19.767722		-5.428086		7.492268		54.046399		-40.222666		15.084759		71.876548		128.769042		-5.591792		-4.384383		-30.656345		33.243598		-47.660026		-7.886599		81.622248		123.287396		-15.059197		-3.515678		18.928360		
1.125455		3.182852		-4.044681		86.001536		0.026177		0.550010		0.521608		89.684976		0.550382		-4.774828		-115.483079		13.057900		5.951571		21.162034		86.368971		-11.511824		4.027468		-120.487280		16.816001		6.074725		35.800404		-64.438069		0.581231		0.840002		20.625259		-5.603471		7.364975		56.229826		-40.222600		16.268123		72.127155		128.642084		-6.244353		-4.115888		-31.017878		35.611131		-47.908028		-6.678923		81.740902		122.987981		-15.450010		-2.910424		18.880411		
1.128636		3.146311		-4.521743		85.864058		0.026208		0.546215		0.521012		90.546540		0.417301		-4.886705		-115.912011		13.166073		6.107830		21.327181		87.221738		-11.821126		3.822063		-120.989731		16.953770		5.842349		35.966254		-64.692121		0.480028		0.902414		21.658570		-5.818062		7.427625		58.318185		-39.877321		16.954696		72.405393		128.861607		-6.138504		-4.279727		-30.958758		37.618208		-48.322683		-5.909509		82.002015		123.029348		-15.393699		-2.885453		18.954888		
